<svg width="1320" height="1530" viewBox="0 0 1320 1530" fill="none" xmlns="http://www.w3.org/2000/svg">
<path d="M1003.36 782.431C1019.07 774.568 1038.88 777.27 1038.88 790.636C1038.88 804.002 1038.59 971.667 1038.88 971.491C1099.32 935.29 1169.37 953.3 1176.86 1025.51C1181.94 1074.5 1171.06 1102.43 1100.36 1172.52C1045.03 1227.9 1049.25 1215.77 1021.8 1259.5C866.445 1507 1331.75 1635.72 1306.45 1359.5C1302.69 1320.87 1283.38 1296.18 1258.44 1289C1246.83 1285.58 1243.98 1297.8 1230.49 1304.48C1206.24 1316.5 1186.88 1289.65 1206.24 1271.66C1258.44 1238.5 1323.44 1304.48 1318.94 1377.65C1301.81 1656.1 851.446 1514 1008.14 1247.05C1013.61 1238.16 1043.32 1204.66 1074.74 1172.52C1142.37 1103.8 1149.94 1079 1152.61 1049.1C1157.37 995.802 1105.45 935.478 1038.88 978.001L1039.44 1113L1038.94 1164.5C1038.94 1174.5 1041.65 1172.82 1053.94 1164.5H1062.44C1046.13 1177.72 1033.7 1192.34 1016.94 1205V813.501C1016.94 790.637 1014.63 783.115 997.894 790.636C985.599 796.448 990.381 789.268 1003.36 782.431Z" fill="black"/>
<path d="M310.739 980.002H303.945C300.94 970.633 285.489 933.662 268.913 925.188C243.856 912.091 202.993 923.262 197.596 944.447C190.658 972.181 202.994 993.367 260.047 1053.84C317.87 1114.7 341.385 1145.13 359.888 1183.27C380.32 1224.87 389.063 1252.39 389.445 1293C390.454 1400.37 321.733 1488.22 218.445 1503C112.135 1518.22 46.7119 1468.14 13.9451 1401.5C-3.18824 1366.12 -6.05442 1309 13.948 1265C35.1199 1218.43 65.9481 1198 110.948 1204.5C126.836 1206.8 145.941 1221.02 145.941 1235.27C145.941 1248.37 139.001 1257.23 126.28 1260.31C115.487 1263 114.33 1262.23 99.2956 1241.82C81.9484 1219.09 51.2268 1230.36 32.948 1267.5C14.6692 1304.64 4.25653 1354.5 27.9499 1401.5C51.9523 1449.11 103.151 1484.88 163.288 1488.73C304.88 1497.43 389.445 1379 367.445 1260.31C358.398 1211.5 320.954 1157.08 298.21 1132.81C296.282 1130.5 273.539 1106.61 248.096 1079.27C181.021 1008 169.456 987.975 177.551 959.085C186.803 925.573 224.581 907.469 264.287 917.869C293.584 925.573 302.445 911.002 302.445 904.002H310.739V980.002Z" fill="black"/>
<path d="M528.872 1367C533.614 1367 537.608 1367.23 540.854 1367.69C544.123 1368.12 546.748 1369 548.728 1370.33C550.731 1371.64 552.181 1373.58 553.079 1376.14C553.977 1378.69 554.426 1382.07 554.426 1386.28H547.796C547.796 1382.96 547.496 1380.38 546.897 1378.55C546.299 1376.69 545.286 1375.35 543.859 1374.53C542.455 1373.7 540.532 1373.2 538.092 1373.02C535.651 1372.81 532.578 1372.71 528.872 1372.71H514.955C511.663 1372.71 508.889 1372.81 506.633 1373.02C504.377 1373.2 502.534 1373.65 501.107 1374.36C499.703 1375.04 498.622 1376.14 497.862 1377.66C497.125 1379.17 496.619 1381.23 496.343 1383.84C496.066 1386.46 495.927 1389.78 495.927 1393.81V1395.19C495.927 1399.08 496.066 1402.31 496.343 1404.88C496.619 1407.45 497.125 1409.5 497.862 1411.03C498.622 1412.57 499.703 1413.72 501.107 1414.47C502.534 1415.23 504.377 1415.72 506.633 1415.95C508.889 1416.18 511.663 1416.29 514.955 1416.29H528.872C532.578 1416.29 535.651 1416.21 538.092 1416.05C540.532 1415.89 542.455 1415.42 543.859 1414.64C545.286 1413.86 546.299 1412.57 546.897 1410.76C547.496 1408.93 547.796 1406.36 547.796 1403.06H554.426C554.426 1407.28 553.977 1410.65 553.079 1413.17C552.181 1415.69 550.731 1417.59 548.728 1418.87C546.748 1420.13 544.123 1420.97 540.854 1421.38C537.608 1421.79 533.614 1422 528.872 1422H514.955C509.775 1422 505.516 1421.64 502.178 1420.93C498.84 1420.25 496.227 1418.96 494.34 1417.08C492.475 1415.2 491.163 1412.5 490.403 1408.97C489.666 1405.44 489.298 1400.85 489.298 1395.19V1393.81C489.298 1389.14 489.528 1385.22 489.988 1382.06C490.448 1378.87 491.243 1376.28 492.371 1374.29C493.499 1372.29 495.03 1370.77 496.964 1369.72C498.92 1368.66 501.372 1367.95 504.319 1367.58C507.266 1367.19 510.811 1367 514.955 1367H528.872Z" fill="black"/>
<path fill-rule="evenodd" clip-rule="evenodd" d="M482.668 1420.9H474.932L468.302 1408.8H426.31L419.68 1420.9H411.945L442.886 1368.1H451.726L482.668 1420.9ZM429.626 1403.3H464.987L447.306 1372.5L429.626 1403.3Z" fill="black"/>
<path fill-rule="evenodd" clip-rule="evenodd" d="M631.917 1420.9H624.181L617.551 1408.8H575.559L568.929 1420.9H561.194L592.135 1368.1H600.975L631.917 1420.9ZM578.875 1403.3H614.236L596.555 1372.5L578.875 1403.3Z" fill="black"/>
<path fill-rule="evenodd" clip-rule="evenodd" d="M680.261 1368.1C685.441 1368.1 689.701 1368.41 693.039 1369.03C696.377 1369.65 698.978 1370.85 700.843 1372.64C702.73 1374.4 704.043 1376.98 704.78 1380.37C705.54 1383.76 705.919 1388.24 705.919 1393.81V1395.19C705.919 1400.57 705.54 1404.96 704.78 1408.35C704.043 1411.72 702.73 1414.32 700.843 1416.16C698.978 1417.97 696.377 1419.22 693.039 1419.9C689.701 1420.57 685.441 1420.9 680.261 1420.9H640.894V1368.1H680.261ZM647.525 1415.19H680.261C684.382 1415.19 687.697 1415 690.207 1414.61C692.716 1414.22 694.627 1413.37 695.939 1412.07C697.251 1410.76 698.138 1408.77 698.598 1406.08C699.059 1403.4 699.289 1399.77 699.289 1395.19V1393.81C699.289 1390.01 699.151 1386.87 698.875 1384.39C698.598 1381.92 698.081 1379.97 697.321 1378.55C696.584 1377.11 695.502 1376.05 694.075 1375.39C692.671 1374.7 690.84 1374.26 688.584 1374.08C686.328 1373.9 683.553 1373.81 680.261 1373.81H647.525V1415.19Z" fill="black"/>
<path d="M769.079 1373.6H723.635V1391.2H767.179V1396.7H723.635V1415.4H770.046V1420.9H717.004V1368.1H769.079V1373.6Z" fill="black"/>
<path d="M820.981 1411.17L852.578 1368.1H862.455V1420.9H855.824V1374.08L824.158 1417.43H818.149L785.654 1374.08V1420.9H779.024V1368.1H788.9L820.981 1411.17Z" fill="black"/>
<path d="M906.794 1393.95L931.105 1368.1H939.945L910.109 1398.9V1420.9H903.479V1398.9L873.643 1368.1H882.483L906.794 1393.95Z" fill="black"/>
<path d="M809.751 1278C816.416 1278 822.03 1278.32 826.593 1278.97C831.187 1279.59 834.876 1280.84 837.659 1282.73C840.474 1284.58 842.513 1287.33 843.775 1290.97C845.037 1294.58 845.668 1299.37 845.668 1305.35H836.348C836.348 1300.64 835.928 1296.98 835.087 1294.38C834.245 1291.75 832.821 1289.85 830.815 1288.68C828.841 1287.51 826.139 1286.79 822.71 1286.53C819.28 1286.24 814.96 1286.09 809.751 1286.09H790.191C785.564 1286.09 781.665 1286.24 778.494 1286.53C775.323 1286.79 772.734 1287.43 770.728 1288.43C768.755 1289.41 767.234 1290.97 766.166 1293.11C765.13 1295.26 764.418 1298.18 764.03 1301.89C763.642 1305.59 763.447 1310.31 763.447 1316.03V1317.97C763.447 1323.5 763.642 1328.08 764.03 1331.72C764.418 1335.36 765.13 1338.27 766.166 1340.45C767.234 1342.63 768.755 1344.25 770.728 1345.32C772.734 1346.4 775.323 1347.1 778.494 1347.42C781.665 1347.74 785.564 1347.91 790.191 1347.91H809.751C814.96 1347.91 819.28 1347.79 822.71 1347.57C826.139 1347.34 828.841 1346.67 830.815 1345.57C832.821 1344.46 834.245 1342.63 835.087 1340.06C835.928 1337.46 836.348 1333.82 836.348 1329.14H845.668C845.668 1335.12 845.037 1339.9 843.775 1343.47C842.513 1347.05 840.474 1349.74 837.659 1351.56C834.876 1353.35 831.187 1354.54 826.593 1355.12C822.03 1355.71 816.416 1356 809.751 1356H790.191C782.911 1356 776.924 1355.5 772.232 1354.49C767.541 1353.51 763.868 1351.69 761.215 1349.03C758.594 1346.36 756.749 1342.53 755.681 1337.52C754.646 1332.52 754.129 1326 754.129 1317.97V1316.03C754.129 1309.4 754.452 1303.84 755.099 1299.35C755.747 1294.84 756.862 1291.16 758.448 1288.33C760.033 1285.51 762.185 1283.35 764.903 1281.85C767.653 1280.36 771.1 1279.35 775.242 1278.83C779.384 1278.28 784.367 1278 790.191 1278H809.751Z" fill="black"/>
<path fill-rule="evenodd" clip-rule="evenodd" d="M487.276 1279.56C494.557 1279.56 500.543 1280 505.235 1280.88C509.927 1281.75 513.583 1283.46 516.204 1286C518.857 1288.5 520.702 1292.15 521.737 1296.96C522.805 1301.77 523.339 1308.13 523.339 1316.03V1317.97C523.339 1325.61 522.805 1331.84 521.737 1336.65C520.702 1341.42 518.857 1345.11 516.204 1347.71C513.583 1350.28 509.927 1352.05 505.235 1353.03C500.543 1353.97 494.557 1354.44 487.276 1354.44H431.945V1279.56H487.276ZM441.264 1346.35H487.276C493.068 1346.35 497.728 1346.07 501.255 1345.52C504.782 1344.97 507.468 1343.76 509.312 1341.91C511.156 1340.06 512.402 1337.23 513.05 1333.43C513.697 1329.63 514.02 1324.47 514.02 1317.97V1316.03C514.02 1310.63 513.826 1306.18 513.437 1302.67C513.049 1299.16 512.321 1296.39 511.254 1294.38C510.218 1292.33 508.697 1290.84 506.691 1289.89C504.717 1288.92 502.144 1288.3 498.973 1288.04C495.802 1287.78 491.903 1287.65 487.276 1287.65H441.264V1346.35Z" fill="black"/>
<path fill-rule="evenodd" clip-rule="evenodd" d="M632.108 1354.44H621.236L611.918 1337.28H552.897L543.578 1354.44H532.706L576.195 1279.56H588.62L632.108 1354.44ZM557.556 1329.48H607.258L582.407 1285.8L557.556 1329.48Z" fill="black"/>
<path d="M729.133 1342.89H729.229V1279.56H738.549V1354.44H728.842L653.95 1290.58H653.852V1354.44H644.534V1279.56H654.241L729.133 1342.89Z" fill="black"/>
<path d="M934.586 1287.36H870.713V1312.32H931.917V1320.12H870.713V1346.64H935.945V1354.44H861.393V1279.56H934.586V1287.36Z" fill="black"/>
<path d="M608.945 931.992C610.064 931.994 610.432 932.297 610.546 933.592L610.445 966.001C614.267 956.76 622.115 947.613 629.993 941.601C638.313 935.201 647.166 932.001 656.552 932.001C673.87 932.001 686.84 941.087 689.193 958.561C692.013 979.5 667.181 989.461 654.313 976.481C641.446 963.502 647.413 944.641 661.673 943.521C655.913 941.814 650.046 941.814 644.073 943.521C638.1 945.014 632.659 947.894 627.753 952.161C622.846 956.428 618.792 961.761 615.593 968.161C612.606 974.561 611.113 981.814 611.113 989.921L610.885 1184.5C610.885 1200.82 622.945 1200 635.945 1200L635.842 1204.98H557.945V1200C571.445 1200 580.778 1200.46 580.778 1184.5L581.005 956.313C581.005 948.846 580.365 943.726 579.085 940.952C577.805 938.179 575.445 937.001 570.945 937.001H557.945V931.992H608.945Z" fill="black"/>
<path fill-rule="evenodd" clip-rule="evenodd" d="M457.993 931.84C471.433 931.84 482.527 933.974 491.273 938.24C500.02 942.294 506.527 948.587 510.794 957.12C515.06 965.653 517.193 976.427 517.193 989.439V1175.84C517.193 1181.81 518.473 1186.08 521.033 1188.64C523.806 1190.99 527.22 1192.16 531.273 1192.16C533.833 1192.16 536.5 1191.84 539.273 1191.2C542.047 1190.35 544.82 1189.17 547.594 1187.68L549.193 1189.92C544.286 1195.68 539.273 1199.63 534.153 1201.76C529.033 1203.89 523.914 1204.96 518.794 1204.96C509.194 1204.96 502.047 1202.4 497.353 1197.28C492.66 1191.95 489.886 1184.05 489.033 1173.6C485.406 1181.49 481.247 1187.79 476.553 1192.48C472.073 1196.96 466.953 1200.16 461.193 1202.08C455.647 1204 449.246 1204.96 441.993 1204.96C427.913 1204.96 416.926 1201.23 409.033 1193.76C393.522 1178.25 387.414 1129.98 405.834 1105.52C419.414 1075.98 462.914 1060.48 487.433 1002.16V973.12C487.433 964.373 486.26 957.333 483.913 952C481.78 946.667 478.367 942.826 473.674 940.48C468.98 937.92 462.9 936.64 455.433 936.64C448.18 936.64 441.033 937.814 433.993 940.16C427.166 942.294 421.94 945.173 418.313 948.8C411.913 955.48 408.281 961.566 410.414 964.98C412.547 968.18 412.914 962.48 420.914 962.48C433.923 962.48 433.353 973.12 433.353 975.04C433.353 978.667 431.753 981.973 428.553 984.96C425.567 987.733 421.3 989.12 415.754 989.12C409.994 989.12 405.62 987.626 402.634 984.64C399.647 981.653 398.153 977.493 398.153 972.16C398.153 965.334 400.927 958.826 406.473 952.64C412.02 946.453 419.38 941.44 428.553 937.6C437.727 933.76 447.54 931.84 457.993 931.84ZM487.433 1029.64C469.414 1069.98 440.968 1093.25 434.313 1103.6C411.413 1127.98 422.433 1192.48 455.433 1192.48C461.833 1192.48 467.38 1190.99 472.073 1188C476.98 1184.8 480.713 1180.53 483.273 1175.2C486.046 1169.65 487.433 1163.36 487.433 1156.32V1029.64Z" fill="black"/>
<path fill-rule="evenodd" clip-rule="evenodd" d="M917.432 931.84C930.872 931.84 941.966 933.974 950.713 938.24C959.459 942.294 965.967 948.587 970.233 957.12C974.5 965.653 976.633 976.427 976.633 989.439V1175.84C976.633 1181.81 977.913 1186.08 980.472 1188.64C983.246 1190.99 986.659 1192.16 990.713 1192.16C993.273 1192.16 995.939 1191.84 998.713 1191.2C1001.49 1190.35 1004.26 1189.17 1007.03 1187.68L1008.63 1189.92C1003.73 1195.68 998.712 1199.63 993.593 1201.76C988.473 1203.89 983.353 1204.96 978.233 1204.96C968.633 1204.96 961.486 1202.4 956.793 1197.28C952.099 1191.95 949.326 1184.05 948.472 1173.6C944.846 1181.49 940.686 1187.79 935.993 1192.48C931.513 1196.96 926.393 1200.16 920.633 1202.08C915.086 1204 908.686 1204.96 901.432 1204.96C887.353 1204.96 876.366 1201.23 868.472 1193.76C852.961 1178.25 846.853 1129.98 865.273 1105.52C878.853 1075.98 922.353 1060.48 946.873 1002.16V973.12C946.873 964.373 945.699 957.333 943.352 952C941.219 946.667 937.806 942.826 933.113 940.48C928.42 937.92 922.339 936.64 914.873 936.64C907.619 936.64 900.472 937.814 893.432 940.16C886.606 942.294 881.379 945.173 877.753 948.8C871.353 955.48 867.72 961.566 869.853 964.98C871.987 968.18 872.353 962.48 880.353 962.48C893.362 962.48 892.793 973.12 892.793 975.04C892.793 978.667 891.193 981.973 887.993 984.96C885.006 987.733 880.74 989.12 875.193 989.12C869.433 989.12 865.06 987.626 862.073 984.64C859.086 981.653 857.593 977.493 857.593 972.16C857.593 965.334 860.366 958.826 865.913 952.64C871.459 946.453 878.82 941.44 887.993 937.6C897.166 933.76 906.979 931.84 917.432 931.84ZM946.873 1029.64C928.853 1069.98 900.407 1093.25 893.753 1103.6C870.853 1127.98 881.872 1192.48 914.873 1192.48C921.273 1192.48 926.819 1190.99 931.512 1188C936.419 1184.8 940.153 1180.53 942.713 1175.2C945.486 1169.65 946.873 1163.36 946.873 1156.32V1029.64Z" fill="black"/>
<path d="M833.976 931.777C836.476 1055 796.192 1148.76 691.945 1204.65H671.945L672.006 1018.15H729.285V1021.99L712.005 1024.23C708.165 1024.65 705.819 1026.04 704.966 1028.39C704.112 1030.73 703.945 1034.15 703.945 1039.59V1171.65C772.003 1142.32 824.339 1033.5 822.476 953.502C822.936 940.997 820.976 937.002 812.976 937.002H799.976V932.002L833.976 931.777Z" fill="black"/>
<path d="M940.136 305.258C1021.45 599.914 952.616 681.379 788.036 813.603C859.945 786.465 946.445 712.811 975.222 640.723C972.445 762.645 857.445 845.645 737.445 903.645C741.304 900.564 747.847 891.107 749.938 886.562C753.794 878.109 753.498 876.032 746.084 863.576C735.11 845.485 729.474 823.686 726.212 786.465C725.322 777.126 724.582 768.675 724.729 767.929C724.73 767.04 727.694 777.864 731.253 791.803C738.074 819.086 742.969 832.433 745.342 830.063C747.121 828.284 765.657 786.614 773.22 767.039C782.71 742.719 784.194 735.749 781.673 728.482C778.526 719.567 772.507 710.796 761.06 695.145C802.445 657.153 837.887 624.437 869.945 584.195C935.59 501.795 949.445 433.085 940.136 305.258Z" fill="url(#paint0_linear_71_107)"/>
<path d="M519.445 812.145L515.445 816.645L508.445 824.145C498.945 834.145 501.945 846.645 505.831 854.882C426.921 806.323 364.244 736.617 355.945 640.723C399.188 717.939 447.127 772.929 519.445 812.145Z" fill="url(#paint1_linear_71_107)"/>
<path fill-rule="evenodd" clip-rule="evenodd" d="M391.445 306.5C388.12 414.349 406.528 509.437 478.382 593.377C478.382 593.377 467.792 599.28 466.999 599.914C464.183 602.139 471.743 616.372 475.154 615.337C481.66 613.376 487.645 611.559 493.187 609.85C493.135 609.795 493.084 609.74 493.033 609.686C502.353 619.597 515.715 633.14 542.244 659.893C571.114 689.005 611.107 713.145 596.445 728.645C591.256 734.131 583.945 742.645 583.945 742.645C597.445 742.145 614.945 731.645 614.945 731.645C603.945 746.145 586.445 751.041 573.445 754.145L557.445 771.145C577.478 767.642 588.945 767.145 612.621 753.248C597.445 771.645 578.945 777.645 545.945 783.645L526.945 801C472.554 765.079 432.447 730.423 396.445 665.312C335.112 554.388 356.945 434.272 391.445 306.5ZM459.287 604.065C458.693 604.067 456.766 605.55 455.136 607.328C450.094 612.815 448.758 616.672 447.127 629.425C445.199 644.846 443.42 650.186 433.93 666.497C429.631 673.909 426.518 680.136 426.96 680.584C428.591 682.215 433.039 678.656 440.75 668.869L449.353 658.341L451.132 666.646C453.504 676.728 459.879 691.554 461.956 691.559C463.884 691.559 463.885 690.52 461.364 676.729C460.328 670.659 459.587 665.474 459.732 665.312C459.732 665.163 463.588 666.349 468.036 667.832C484.793 673.615 485.684 670.204 470.113 661.01C460.327 655.227 459.881 654.781 459.881 649.295C459.881 641.139 462.995 641.139 465.367 649.443C470.706 668.128 473.227 649.147 468.63 624.977C466.406 613.41 462.253 604.065 459.287 604.065Z" fill="url(#paint2_linear_71_107)"/>
<path d="M696.109 627.052C685.098 667.297 660.538 697.538 621.445 712.645C618.161 709.069 610.501 700.948 610.501 700.948C651.462 684.886 672.945 668.572 696.109 627.052Z" fill="url(#paint3_linear_71_107)"/>
<path d="M640.054 526.955C649.396 531.7 663.336 545.638 667.34 554.388C672.973 565.889 679.445 569.145 697.146 576.039C689.945 578.145 680.445 576.645 665.709 566.104C665.416 566.404 667.193 569.072 669.86 572.184C675.347 578.263 682.466 582.416 692.55 584.937C697.739 586.123 699.075 589.088 699.075 589.088C699.075 589.088 679.796 589.385 667.488 578.56L660.52 572.479C625.783 589.424 589.65 631.975 607.134 673.021C640.168 665.093 663.945 649.145 693.44 614.002C673.867 653.145 647.717 678.908 605.502 693.145C567.468 657.961 546.953 638.187 515.445 602.145C557.859 588.14 566 580.899 608.913 543.859C616.624 537.187 625.522 530.069 628.637 527.992L634.419 524.138L640.054 526.955Z" fill="url(#paint4_linear_71_107)"/>
<path d="M721.445 238.145C722.445 241.145 720.445 242.645 717.945 242.145C715.033 241.562 715.262 238.71 714.445 236.145C713.218 232.29 708.945 226.645 708.945 226.645C708.945 226.645 713.104 229.563 715.945 231.145C718.945 236.645 720.571 236.308 721.445 238.145Z" fill="url(#paint5_linear_71_107)"/>
<path fill-rule="evenodd" clip-rule="evenodd" d="M665.308 0C670.445 32.1445 709.386 66.4402 737.831 93.5078C775.624 129.471 804.445 156.145 827.161 214.713V204.619C827.161 194.199 823.416 176.965 819.945 170.145C934.445 261.145 942.722 455.324 851.331 568.838C820.175 607.533 783.531 641.643 748.679 676.961C728.945 659.645 707.945 639.645 702.781 612.963C708.445 621.645 711.445 627.052 724.136 636.098C726.002 618.263 726.35 600.324 726.953 582.416L733.924 568.328C737.779 560.469 743.562 545.936 746.973 535.704C757.353 504.86 756.611 489.289 744.304 477.723C740.003 473.57 720.873 461.645 713.606 458.74C728.945 478.145 733.775 487.931 733.775 504.645C733.775 508.145 729.239 507.395 729.326 503.523C729.622 490.325 718.204 468.378 706.638 460.074L702.337 456.96L703.969 460.668C706.193 465.413 704.562 471.641 701.003 472.828C699.519 473.273 691.956 472.383 684.395 470.604C676.832 468.972 669.712 467.638 669.712 467.638C669.712 467.638 675.059 470.608 682.317 474.163C697.295 481.578 706.71 487.341 720.945 504.145C722.636 506.14 719.945 509.145 716.945 506.145C713.231 502.431 713.904 503.228 707.083 497C693.44 484.395 673.271 473.124 654.883 467.638C648.956 465.86 644.51 464.229 644.8 463.931C645.246 463.486 664.522 466.748 664.522 466.748C655.445 463.145 649.945 460.645 649.945 460.645C652.021 461.089 666.896 462.744 676.831 464.079C692.845 466.155 695.187 466.015 697.295 464.375C701.445 461.145 680.241 449.694 680.241 449.694C674.945 446.136 671.679 439.535 670.603 431.603C669.231 421.495 669.268 415.439 678.906 406.839L686.767 399.721C683.025 394.619 676.066 387.744 672.383 382.645C670.455 380.124 672.68 377.625 672.383 375.549C671.938 372.435 671.046 371.842 663.78 371.249C657.849 370.656 653.252 369.024 646.579 364.872C641.686 361.758 635.16 358.94 632.194 358.347C626.709 357.457 626.709 357.458 627.599 362.055C628.933 368.283 627.301 375.698 623.594 380.146L620.628 383.853L621.667 378.218C622.853 370.803 621.369 363.536 617.662 359.681C605.945 349.645 579.848 364.575 589.042 398.83C593.681 416.113 604.465 423.892 624.945 427.302C600.866 432.196 579.445 412.177 579.848 387.561C571.681 404.645 586.445 438.868 624.188 437.683C623.742 438.72 621.666 439.907 619.442 440.352C617.367 440.796 614.697 441.537 613.511 441.834C612.325 442.278 610.841 441.686 610.248 440.648C609.358 439.314 608.616 439.314 606.985 440.648C605.355 442.131 604.464 441.983 602.981 440.204C601.944 438.87 600.165 438.129 599.127 438.573C598.089 439.018 596.901 438.276 596.456 437.09C596.011 435.904 594.825 435.014 593.787 435.014C589.486 435.011 574.808 417.219 574.807 412.177C574.807 410.991 574.213 409.656 573.472 409.211C572.879 408.766 571.84 405.8 571.247 402.687C569.616 391.713 561.904 390.23 561.904 400.759C561.904 404.021 561.015 407.728 559.978 409.062C558.792 410.545 558.643 411.881 559.681 413.067C560.422 414.106 561.608 417.813 562.201 421.371C562.794 424.929 564.129 428.191 565.315 428.637C566.502 429.082 567.392 430.713 567.392 432.196C567.392 433.827 568.43 435.457 569.615 435.902C570.801 436.495 571.84 437.83 571.841 438.868C571.841 440.054 572.879 441.389 574.064 441.834C575.251 442.279 576.585 443.911 577.03 445.542C577.623 447.025 579.256 448.359 580.738 448.359C582.221 448.36 583.851 449.399 584.296 450.733C584.889 452.216 586.373 452.808 588.004 452.363C589.783 451.919 591.266 452.513 591.711 453.699C592.156 454.885 594.086 455.774 596.161 455.774C598.236 455.775 600.311 456.516 600.757 457.257C601.313 458.091 602.782 458.405 604.186 458.074L604.744 457.925C606.147 457.594 607.617 457.906 608.173 458.74C608.618 459.629 609.952 459.778 610.842 459.186C611.732 458.593 614.401 458.295 616.625 458.443C618.849 458.592 620.776 457.998 620.776 457.108C620.777 456.219 621.963 455.924 623.742 456.517C625.966 457.258 627.005 456.516 628.191 453.699C628.933 451.624 630.416 449.844 631.306 449.843C632.492 449.842 632.64 447.321 631.898 441.539C631.157 435.311 631.305 433.532 632.64 434.272C637.978 437.535 640.351 455.922 636.496 463.188C635.309 465.265 630.564 469.862 625.819 473.569C621.074 477.277 612.027 487.064 605.65 495.368L594.445 512.145C601.862 519.561 608.913 528.645 601.647 536.298L588.445 520.645C588.445 520.645 580.44 529.625 571.396 538.225C556.863 551.867 552.858 554.834 539.216 561.358C530.209 565.74 513.591 573.718 496.945 582.645C396.945 459.186 387.179 270.794 510.445 170.145C510.445 170.145 500.945 188.645 504.426 212.82C522.445 156.645 556.013 128.158 593.945 92.1445C622.686 64.857 660.445 30.1445 665.308 0ZM739.945 299.645C736.445 302.645 730.945 306.645 722.945 306.145C722.945 306.145 726.066 319.061 729.771 333.583C734.367 351.526 736.295 361.461 735.554 364.575C735.109 366.949 731.697 376.29 728.139 385.039C724.581 393.934 719.945 404.645 719.945 404.645C731.445 408.645 743.445 411.645 739.945 421.145C739.945 421.145 716.633 413.145 715.445 413.145C715.445 413.145 702.337 429.645 691.957 446.136C691.957 446.136 696.407 448.508 701.893 449.546C707.379 450.584 715.831 453.106 720.873 455.182C725.764 457.108 730.359 459.035 731.104 459.186C732.587 459.482 752.31 405.059 761.06 376.438L766.548 358.792L763.879 351.377C760.913 342.924 742.17 302.611 739.945 299.645ZM739.445 225.645C738.621 223.859 740.945 215.645 749.945 205.145C749.945 205.145 749.422 203.23 748.445 202.645C745.945 201.145 742.945 204.145 742.945 204.145C742.945 204.145 728.945 218.145 730.445 230.645L728.445 233.145L720.945 224.645C710.945 222.145 705.637 217.168 704.445 217.645C699.445 219.645 704.945 223.645 704.945 223.645C704.945 223.645 702.188 222.402 700.945 223.645C698.945 225.645 702.445 226.145 705.445 236.145C706.525 239.742 706.945 238.645 706.945 245.645C703.945 262.145 710.611 267.306 711.945 272.645C715.059 285.249 720.945 299.145 720.945 299.145C723.879 302.441 735.445 297.145 736.945 294.145C736.945 294.145 734.49 288.594 731.847 282.867C726.36 270.411 728.067 265.145 737.945 245.645C745.226 239.184 749.638 237.058 757.945 236.145C760.445 232.145 753.445 231.145 749.445 232.645L744.445 233.645C744.445 233.645 750.761 224.785 755.445 220.645C757.64 218.705 760.445 216.645 760.445 216.645C759.259 212.493 753.945 213.645 749.445 217.321C744.945 220.145 739.445 225.645 739.445 225.645Z" fill="url(#paint6_linear_71_107)"/>
<path d="M708.565 584.195C712.866 581.23 715.536 581.229 718.946 584.343C724.433 589.236 721.021 599.617 713.903 599.617C705.896 599.616 702.19 588.644 708.565 584.195Z" fill="url(#paint7_linear_71_107)"/>
<path d="M722.652 511.829C725.618 508.567 730.216 508.418 733.775 511.681C737.779 515.24 737.333 523.395 732.885 526.213C724.878 531.55 715.981 519.095 722.652 511.829Z" fill="url(#paint8_linear_71_107)"/>
<path d="M673.717 479.501C674.163 479.502 677.574 481.133 681.132 483.209C684.542 485.285 687.508 487.805 687.509 488.547C687.507 491.517 676.534 521.317 675.94 519.836C675.645 518.945 676.535 514.496 677.721 509.752C678.907 505.007 679.797 500.854 679.5 500.706C679.2 500.417 676.235 506.198 672.975 513.608C669.564 520.873 666.303 526.954 665.709 526.955C663.336 526.954 654.885 523.247 654.883 522.209C654.884 518.056 671.934 479.511 673.717 479.501Z" fill="url(#paint9_linear_71_107)"/>
<path d="M629.971 411.287C629.971 411.287 641.932 423.929 645.688 414.55C646.43 412.622 646.876 413.363 647.469 417.219C648.062 421.222 648.953 422.557 651.622 422.854C655.477 423.447 654.883 428.785 654.883 428.785C654.883 428.785 648.945 433.085 644.354 432.048C639.764 431.011 638.445 428.785 638.445 428.785L641.445 422.854C629.971 420.145 629.971 411.287 629.971 411.287Z" fill="url(#paint10_linear_71_107)"/>
<defs>
<linearGradient id="paint0_linear_71_107" x1="796.946" y1="765.247" x2="596.535" y2="26.9522" gradientUnits="userSpaceOnUse">
<stop stop-color="#A3148B"/>
<stop offset="0.490385" stop-color="#FA3556"/>
<stop offset="0.796357" stop-color="#FF4A29"/>
<stop offset="0.975962" stop-color="#FF7018"/>
</linearGradient>
<linearGradient id="paint1_linear_71_107" x1="796.946" y1="765.247" x2="596.535" y2="26.9522" gradientUnits="userSpaceOnUse">
<stop stop-color="#A3148B"/>
<stop offset="0.490385" stop-color="#FA3556"/>
<stop offset="0.796357" stop-color="#FF4A29"/>
<stop offset="0.975962" stop-color="#FF7018"/>
</linearGradient>
<linearGradient id="paint2_linear_71_107" x1="796.946" y1="765.247" x2="596.535" y2="26.9522" gradientUnits="userSpaceOnUse">
<stop stop-color="#A3148B"/>
<stop offset="0.490385" stop-color="#FA3556"/>
<stop offset="0.796357" stop-color="#FF4A29"/>
<stop offset="0.975962" stop-color="#FF7018"/>
</linearGradient>
<linearGradient id="paint3_linear_71_107" x1="796.946" y1="765.247" x2="596.535" y2="26.9522" gradientUnits="userSpaceOnUse">
<stop stop-color="#A3148B"/>
<stop offset="0.490385" stop-color="#FA3556"/>
<stop offset="0.796357" stop-color="#FF4A29"/>
<stop offset="0.975962" stop-color="#FF7018"/>
</linearGradient>
<linearGradient id="paint4_linear_71_107" x1="796.946" y1="765.247" x2="596.535" y2="26.9522" gradientUnits="userSpaceOnUse">
<stop stop-color="#A3148B"/>
<stop offset="0.490385" stop-color="#FA3556"/>
<stop offset="0.796357" stop-color="#FF4A29"/>
<stop offset="0.975962" stop-color="#FF7018"/>
</linearGradient>
<linearGradient id="paint5_linear_71_107" x1="796.946" y1="765.247" x2="596.535" y2="26.9522" gradientUnits="userSpaceOnUse">
<stop stop-color="#A3148B"/>
<stop offset="0.490385" stop-color="#FA3556"/>
<stop offset="0.796357" stop-color="#FF4A29"/>
<stop offset="0.975962" stop-color="#FF7018"/>
</linearGradient>
<linearGradient id="paint6_linear_71_107" x1="796.946" y1="765.247" x2="596.535" y2="26.9522" gradientUnits="userSpaceOnUse">
<stop stop-color="#A3148B"/>
<stop offset="0.490385" stop-color="#FA3556"/>
<stop offset="0.796357" stop-color="#FF4A29"/>
<stop offset="0.975962" stop-color="#FF7018"/>
</linearGradient>
<linearGradient id="paint7_linear_71_107" x1="796.946" y1="765.247" x2="596.535" y2="26.9522" gradientUnits="userSpaceOnUse">
<stop stop-color="#A3148B"/>
<stop offset="0.490385" stop-color="#FA3556"/>
<stop offset="0.796357" stop-color="#FF4A29"/>
<stop offset="0.975962" stop-color="#FF7018"/>
</linearGradient>
<linearGradient id="paint8_linear_71_107" x1="796.946" y1="765.247" x2="596.535" y2="26.9522" gradientUnits="userSpaceOnUse">
<stop stop-color="#A3148B"/>
<stop offset="0.490385" stop-color="#FA3556"/>
<stop offset="0.796357" stop-color="#FF4A29"/>
<stop offset="0.975962" stop-color="#FF7018"/>
</linearGradient>
<linearGradient id="paint9_linear_71_107" x1="796.946" y1="765.247" x2="596.535" y2="26.9522" gradientUnits="userSpaceOnUse">
<stop stop-color="#A3148B"/>
<stop offset="0.490385" stop-color="#FA3556"/>
<stop offset="0.796357" stop-color="#FF4A29"/>
<stop offset="0.975962" stop-color="#FF7018"/>
</linearGradient>
<linearGradient id="paint10_linear_71_107" x1="796.946" y1="765.247" x2="596.535" y2="26.9522" gradientUnits="userSpaceOnUse">
<stop stop-color="#A3148B"/>
<stop offset="0.490385" stop-color="#FA3556"/>
<stop offset="0.796357" stop-color="#FF4A29"/>
<stop offset="0.975962" stop-color="#FF7018"/>
</linearGradient>
</defs>
</svg>
