<svg width="1320" height="752" viewBox="0 0 1320 752" fill="none" xmlns="http://www.w3.org/2000/svg">
<path d="M1003.36 4.38383C1019.07 -3.47929 1038.88 -0.776555 1038.88 12.5889C1038.88 25.9553 1038.59 193.62 1038.88 193.444C1099.32 157.243 1169.37 175.253 1176.86 247.462C1181.94 296.454 1171.06 324.386 1100.36 394.472C1045.03 449.856 1049.25 437.726 1021.8 481.454C866.446 728.954 1331.75 857.677 1306.45 581.454C1302.69 542.822 1283.38 518.134 1258.44 510.954C1246.83 507.536 1243.98 519.75 1230.49 526.438C1206.24 538.454 1186.88 511.605 1206.24 493.617C1258.44 460.454 1323.45 526.438 1318.94 599.601C1301.81 878.058 851.446 735.954 1008.14 469.002C1013.61 460.113 1043.32 426.609 1074.74 394.472C1142.37 325.753 1149.94 300.954 1152.61 271.052C1157.37 217.755 1105.45 157.431 1038.88 199.954L1039.44 334.954L1038.94 386.454C1038.94 396.454 1041.65 394.775 1053.94 386.454H1062.44C1046.13 399.671 1033.7 414.29 1016.94 426.955V35.4541C1016.94 12.5897 1014.63 5.06764 997.895 12.5889C985.599 18.4009 990.381 11.2215 1003.36 4.38383Z" fill="url(#paint0_linear_71_108)"/>
<path d="M310.738 201.954H303.946C300.94 192.586 285.489 155.614 268.913 147.14C243.856 134.043 202.994 145.214 197.597 166.399C190.658 194.133 202.994 215.32 260.046 275.795C317.87 336.656 341.385 367.087 359.889 405.221C380.32 446.822 389.064 474.347 389.446 514.954C390.455 622.327 321.734 710.171 218.446 724.954C112.135 740.17 46.7124 690.093 13.9455 623.454C-3.18775 588.073 -6.05482 530.954 13.9475 486.954C35.1194 440.381 65.9485 419.954 110.948 426.454C126.837 428.749 145.941 442.97 145.941 457.223C145.941 470.319 139.002 479.179 126.28 482.261C115.487 484.957 114.33 484.186 99.2961 463.771C81.9489 441.044 51.2272 452.316 32.9485 489.454C14.6696 526.593 4.25697 576.454 27.9504 623.454C51.9527 671.067 103.152 706.83 163.288 710.682C304.881 719.379 389.445 600.954 367.446 482.261C358.398 433.45 320.954 379.028 298.21 354.761C296.283 352.45 273.538 328.568 248.096 301.219C181.02 229.958 169.456 209.927 177.551 181.037C186.803 147.525 224.582 129.421 264.287 139.821C293.584 147.525 302.446 132.954 302.446 125.954H310.738C310.738 125.954 310.738 179.613 310.738 201.954Z" fill="url(#paint1_linear_71_108)"/>
<path d="M608.947 153.945C610.067 153.947 610.434 154.25 610.548 155.545L610.447 187.954C614.27 178.713 622.118 169.566 629.995 163.554C638.315 157.154 647.168 153.954 656.555 153.954C673.873 153.954 686.841 163.04 689.195 180.514C692.014 201.454 667.182 211.415 654.315 198.435C641.447 185.455 647.415 166.595 661.675 165.475C655.915 163.768 650.049 163.768 644.075 165.475C638.102 166.968 632.662 169.848 627.755 174.114C622.848 178.381 618.795 183.714 615.595 190.114C612.608 196.514 611.115 203.767 611.115 211.874L610.888 406.454C610.888 422.775 622.947 421.954 635.947 421.954L635.844 426.935H557.947V421.954C571.447 421.954 580.779 422.417 580.779 406.454L581.007 178.266C581.007 170.799 580.367 165.679 579.087 162.905C577.807 160.132 575.447 158.954 570.947 158.954H557.947V153.945H608.947Z" fill="url(#paint2_linear_71_108)"/>
<path fill-rule="evenodd" clip-rule="evenodd" d="M457.993 153.794C471.433 153.794 482.527 155.928 491.274 160.194C500.02 164.248 506.527 170.541 510.793 179.074C515.06 187.607 517.193 198.38 517.194 211.394V397.794C517.194 403.767 518.473 408.034 521.033 410.594C523.807 412.94 527.22 414.114 531.274 414.114C533.834 414.114 536.5 413.794 539.274 413.154C542.047 412.301 544.821 411.127 547.594 409.634L549.194 411.874C544.287 417.634 539.273 421.581 534.154 423.714C529.034 425.847 523.913 426.914 518.793 426.914C509.194 426.914 502.047 424.354 497.354 419.234C492.66 413.901 489.887 406.007 489.033 395.554C485.407 403.447 481.247 409.74 476.554 414.434C472.074 418.914 466.954 422.114 461.194 424.034C455.647 425.954 449.247 426.914 441.993 426.914C427.913 426.914 416.927 423.181 409.033 415.714C393.522 400.202 387.413 351.934 405.833 327.474C419.413 297.934 462.914 282.434 487.434 224.114V195.074C487.434 186.328 486.26 179.287 483.913 173.954C481.78 168.621 478.366 164.78 473.673 162.434C468.98 159.874 462.9 158.594 455.434 158.594C448.18 158.594 441.033 159.768 433.993 162.114C427.167 164.248 421.94 167.127 418.314 170.754C411.914 177.434 408.28 183.52 410.413 186.934C412.547 190.134 412.914 184.434 420.913 184.434C433.923 184.434 433.354 195.074 433.354 196.994C433.354 200.621 431.754 203.928 428.554 206.914C425.567 209.687 421.3 211.074 415.753 211.074C409.993 211.074 405.621 209.58 402.634 206.594C399.647 203.607 398.154 199.447 398.154 194.114C398.154 187.288 400.927 180.78 406.474 174.594C412.02 168.407 419.381 163.394 428.554 159.554C437.727 155.714 447.54 153.794 457.993 153.794ZM487.434 251.594C469.414 291.933 440.968 315.203 434.314 325.554C411.414 349.934 422.433 414.434 455.434 414.434C461.834 414.434 467.38 412.941 472.073 409.954C476.98 406.754 480.714 402.488 483.274 397.154C486.047 391.608 487.434 385.314 487.434 378.274V251.594Z" fill="url(#paint3_linear_71_108)"/>
<path fill-rule="evenodd" clip-rule="evenodd" d="M917.433 153.794C930.873 153.794 941.966 155.928 950.713 160.194C959.46 164.248 965.966 170.541 970.233 179.074C974.499 187.607 976.633 198.38 976.633 211.394V397.794C976.633 403.767 977.913 408.034 980.473 410.594C983.246 412.94 986.66 414.114 990.713 414.114C993.273 414.114 995.94 413.794 998.713 413.154C1001.49 412.301 1004.26 411.127 1007.03 409.634L1008.63 411.874C1003.73 417.634 998.713 421.581 993.593 423.714C988.473 425.847 983.353 426.914 978.233 426.914C968.633 426.914 961.486 424.354 956.793 419.234C952.1 413.901 949.326 406.007 948.473 395.554C944.846 403.447 940.687 409.74 935.993 414.434C931.513 418.914 926.393 422.114 920.633 424.034C915.086 425.954 908.686 426.914 901.433 426.914C887.353 426.914 876.366 423.181 868.473 415.714C852.962 400.202 846.853 351.934 865.273 327.474C878.853 297.934 922.353 282.434 946.873 224.114V195.074C946.873 186.328 945.699 179.287 943.353 173.954C941.219 168.621 937.806 164.78 933.112 162.434C928.419 159.874 922.34 158.594 914.873 158.594C907.62 158.594 900.473 159.768 893.433 162.114C886.606 164.248 881.38 167.127 877.753 170.754C871.353 177.434 867.72 183.52 869.853 186.934C871.986 190.134 872.353 184.434 880.353 184.434C893.362 184.434 892.793 195.074 892.793 196.994C892.793 200.621 891.193 203.928 887.993 206.914C885.007 209.687 880.739 211.074 875.193 211.074C869.433 211.074 865.06 209.58 862.073 206.594C859.087 203.607 857.593 199.447 857.593 194.114C857.593 187.288 860.367 180.78 865.913 174.594C871.46 168.407 878.82 163.394 887.993 159.554C897.167 155.714 906.98 153.794 917.433 153.794ZM946.873 251.594C928.853 291.933 900.408 315.203 893.753 325.554C870.853 349.934 881.873 414.434 914.873 414.434C921.273 414.434 926.82 412.941 931.513 409.954C936.419 406.754 940.153 402.488 942.713 397.154C945.486 391.608 946.873 385.314 946.873 378.274V251.594Z" fill="url(#paint4_linear_71_108)"/>
<path d="M833.977 153.73C836.477 276.954 796.192 370.708 691.945 426.599H671.945L672.005 240.099H729.285V243.939L712.005 246.179C708.165 246.605 705.818 247.992 704.965 250.339C704.112 252.686 703.946 256.099 703.945 261.538V393.599C772.003 364.274 824.339 255.454 822.477 175.454C822.937 162.95 820.977 158.954 812.977 158.954H799.977V153.954L833.977 153.73Z" fill="url(#paint5_linear_71_108)"/>
<path d="M528.872 588.954C533.614 588.954 537.609 589.183 540.854 589.642C544.124 590.077 546.749 590.959 548.729 592.288C550.731 593.594 552.181 595.531 553.079 598.098C553.977 600.641 554.426 604.022 554.426 608.238H547.796C547.796 604.915 547.496 602.337 546.897 600.504C546.299 598.648 545.286 597.307 543.859 596.482C542.455 595.657 540.532 595.153 538.092 594.97C535.652 594.763 532.578 594.66 528.872 594.66H514.955C511.663 594.66 508.889 594.763 506.633 594.97C504.377 595.153 502.535 595.6 501.107 596.311C499.703 596.998 498.622 598.098 497.862 599.61C497.126 601.123 496.619 603.185 496.343 605.798C496.067 608.41 495.928 611.733 495.928 615.767V617.142C495.928 621.037 496.067 624.268 496.343 626.835C496.619 629.402 497.126 631.453 497.862 632.988C498.622 634.524 499.703 635.67 501.107 636.426C502.535 637.182 504.377 637.675 506.633 637.904C508.889 638.133 511.663 638.248 514.955 638.248H528.872C532.578 638.248 535.652 638.167 538.092 638.007C540.532 637.846 542.455 637.377 543.859 636.598C545.286 635.819 546.299 634.524 546.897 632.714C547.496 630.881 547.796 628.314 547.796 625.014H554.426C554.426 629.23 553.977 632.599 553.079 635.12C552.181 637.641 550.731 639.543 548.729 640.826C546.749 642.087 544.124 642.922 540.854 643.335C537.609 643.747 533.614 643.954 528.872 643.954H514.955C509.776 643.954 505.517 643.599 502.179 642.889C498.841 642.201 496.228 640.917 494.34 639.038C492.475 637.159 491.163 634.455 490.403 630.926C489.667 627.397 489.298 622.802 489.298 617.142V615.767C489.298 611.092 489.528 607.173 489.988 604.011C490.449 600.825 491.243 598.235 492.371 596.241C493.499 594.248 495.03 592.724 496.964 591.67C498.921 590.616 501.373 589.905 504.319 589.538C507.266 589.149 510.811 588.954 514.955 588.954H528.872Z" fill="white"/>
<path fill-rule="evenodd" clip-rule="evenodd" d="M482.668 642.854H474.933L468.302 630.754H426.311L419.681 642.854H411.945L442.887 590.054H451.727L482.668 642.854ZM429.626 625.254H464.987L447.307 594.454L429.626 625.254Z" fill="white"/>
<path fill-rule="evenodd" clip-rule="evenodd" d="M631.917 642.854H624.182L617.551 630.754H575.56L568.93 642.854H561.194L592.135 590.054H600.976L631.917 642.854ZM578.875 625.254H614.236L596.556 594.454L578.875 625.254Z" fill="white"/>
<path fill-rule="evenodd" clip-rule="evenodd" d="M680.262 590.054C685.442 590.054 689.701 590.364 693.039 590.982C696.377 591.601 698.978 592.804 700.843 594.592C702.731 596.356 704.044 598.935 704.78 602.326C705.54 605.718 705.919 610.198 705.919 615.767V617.142C705.919 622.527 705.54 626.916 704.78 630.308C704.044 633.676 702.73 636.277 700.843 638.11C698.978 639.921 696.377 641.17 693.039 641.857C689.701 642.522 685.442 642.854 680.262 642.854H640.895V590.054H680.262ZM647.525 637.147H680.262C684.382 637.147 687.698 636.953 690.207 636.563C692.716 636.174 694.627 635.326 695.939 634.02C697.252 632.713 698.138 630.719 698.599 628.038C699.059 625.357 699.289 621.725 699.289 617.142V615.767C699.289 611.962 699.151 608.823 698.875 606.348C698.599 603.873 698.081 601.925 697.321 600.504C696.585 599.06 695.502 598.006 694.075 597.342C692.671 596.654 690.84 596.218 688.584 596.035C686.328 595.852 683.554 595.761 680.262 595.761H647.525V637.147Z" fill="white"/>
<path d="M769.079 595.554H723.635V613.154H767.18V618.654H723.635V637.354H770.046V642.854H717.004V590.054H769.079V595.554Z" fill="white"/>
<path d="M820.981 633.126L852.578 590.054H862.455V642.854H855.824V596.035L824.158 639.382H818.149L785.654 596.035V642.854H779.024V590.054H788.9L820.981 633.126Z" fill="white"/>
<path d="M906.794 615.904L931.105 590.054H939.945L910.109 620.854V642.854H903.479V620.854L873.644 590.054H882.483L906.794 615.904Z" fill="white"/>
<path d="M809.751 499.954C816.416 499.954 822.03 500.279 826.593 500.929C831.187 501.546 834.876 502.798 837.659 504.683C840.474 506.535 842.513 509.282 843.775 512.922C845.037 516.529 845.668 521.323 845.668 527.303H836.349C836.349 522.59 835.928 518.934 835.087 516.334C834.246 513.702 832.822 511.8 830.816 510.63C828.843 509.46 826.14 508.745 822.71 508.485C819.28 508.193 814.96 508.047 809.751 508.047H790.191C785.564 508.047 781.665 508.193 778.494 508.485C775.323 508.745 772.735 509.379 770.729 510.387C768.755 511.362 767.234 512.922 766.166 515.066C765.131 517.211 764.419 520.137 764.03 523.842C763.642 527.547 763.447 532.26 763.447 537.979V539.929C763.447 545.454 763.642 550.037 764.03 553.677C764.419 557.317 765.131 560.226 766.166 562.403C767.234 564.581 768.755 566.206 770.729 567.278C772.735 568.351 775.323 569.049 778.494 569.374C781.665 569.699 785.564 569.861 790.191 569.861H809.751C814.96 569.861 819.28 569.748 822.71 569.521C826.14 569.293 828.843 568.626 830.816 567.521C832.822 566.416 834.246 564.58 835.087 562.013C835.928 559.413 836.349 555.773 836.349 551.093H845.668C845.668 557.073 845.037 561.851 843.775 565.426C842.513 569.001 840.474 571.698 837.659 573.518C834.876 575.305 831.187 576.491 826.593 577.076C822.03 577.661 816.416 577.954 809.751 577.954H790.191C782.911 577.954 776.924 577.45 772.232 576.442C767.541 575.467 763.868 573.647 761.215 570.982C758.594 568.317 756.749 564.482 755.682 559.478C754.646 554.473 754.129 547.956 754.129 539.929V537.979C754.129 531.349 754.452 525.792 755.1 521.307C755.747 516.789 756.863 513.117 758.448 510.289C760.034 507.462 762.186 505.301 764.903 503.806C767.654 502.311 771.1 501.303 775.242 500.783C779.384 500.231 784.367 499.954 790.191 499.954H809.751Z" fill="white"/>
<path fill-rule="evenodd" clip-rule="evenodd" d="M487.276 501.514C494.557 501.514 500.544 501.953 505.235 502.83C509.927 503.708 513.583 505.414 516.204 507.949C518.857 510.452 520.702 514.108 521.737 518.918C522.805 523.728 523.339 530.082 523.339 537.979V539.929C523.339 547.566 522.805 553.791 521.737 558.601C520.702 563.378 518.857 567.067 516.204 569.667C513.583 572.234 509.927 574.005 505.235 574.98C500.544 575.923 494.557 576.395 487.276 576.395H431.945V501.514H487.276ZM441.265 568.302H487.276C493.068 568.302 497.728 568.025 501.255 567.473C504.782 566.92 507.468 565.718 509.312 563.865C511.157 562.013 512.403 559.185 513.05 555.383C513.697 551.58 514.021 546.429 514.021 539.929V537.979C514.021 532.585 513.826 528.132 513.438 524.622C513.049 521.112 512.322 518.349 511.254 516.334C510.218 514.287 508.698 512.791 506.691 511.849C504.718 510.874 502.145 510.257 498.974 509.997C495.803 509.737 491.903 509.606 487.276 509.606H441.265V568.302Z" fill="white"/>
<path fill-rule="evenodd" clip-rule="evenodd" d="M632.108 576.395H621.236L611.918 559.234H552.897L543.578 576.395H532.706L576.195 501.514H588.62L632.108 576.395ZM557.557 551.435H607.258L582.407 507.754L557.557 551.435Z" fill="white"/>
<path d="M729.133 564.841H729.229V501.514H738.549V576.395H728.842L653.95 512.531H653.853V576.395H644.534V501.514H654.241L729.133 564.841Z" fill="white"/>
<path d="M934.586 509.314H870.713V534.274H931.917V542.074H870.713V568.594H935.945V576.395H861.394V501.514H934.586V509.314Z" fill="white"/>
<defs>
<linearGradient id="paint0_linear_71_108" x1="939.407" y1="636.055" x2="870.395" y2="-15.5057" gradientUnits="userSpaceOnUse">
<stop stop-color="#A3148B"/>
<stop offset="0.490385" stop-color="#FA3556"/>
<stop offset="0.796357" stop-color="#FF4A29"/>
<stop offset="0.975962" stop-color="#FF7018"/>
</linearGradient>
<linearGradient id="paint1_linear_71_108" x1="939.407" y1="636.055" x2="870.395" y2="-15.5057" gradientUnits="userSpaceOnUse">
<stop stop-color="#A3148B"/>
<stop offset="0.490385" stop-color="#FA3556"/>
<stop offset="0.796357" stop-color="#FF4A29"/>
<stop offset="0.975962" stop-color="#FF7018"/>
</linearGradient>
<linearGradient id="paint2_linear_71_108" x1="939.407" y1="636.055" x2="870.395" y2="-15.5057" gradientUnits="userSpaceOnUse">
<stop stop-color="#A3148B"/>
<stop offset="0.490385" stop-color="#FA3556"/>
<stop offset="0.796357" stop-color="#FF4A29"/>
<stop offset="0.975962" stop-color="#FF7018"/>
</linearGradient>
<linearGradient id="paint3_linear_71_108" x1="939.407" y1="636.055" x2="870.395" y2="-15.5057" gradientUnits="userSpaceOnUse">
<stop stop-color="#A3148B"/>
<stop offset="0.490385" stop-color="#FA3556"/>
<stop offset="0.796357" stop-color="#FF4A29"/>
<stop offset="0.975962" stop-color="#FF7018"/>
</linearGradient>
<linearGradient id="paint4_linear_71_108" x1="939.407" y1="636.055" x2="870.395" y2="-15.5057" gradientUnits="userSpaceOnUse">
<stop stop-color="#A3148B"/>
<stop offset="0.490385" stop-color="#FA3556"/>
<stop offset="0.796357" stop-color="#FF4A29"/>
<stop offset="0.975962" stop-color="#FF7018"/>
</linearGradient>
<linearGradient id="paint5_linear_71_108" x1="939.407" y1="636.055" x2="870.395" y2="-15.5057" gradientUnits="userSpaceOnUse">
<stop stop-color="#A3148B"/>
<stop offset="0.490385" stop-color="#FA3556"/>
<stop offset="0.796357" stop-color="#FF4A29"/>
<stop offset="0.975962" stop-color="#FF7018"/>
</linearGradient>
</defs>
</svg>
